<svg width="96" height="24" viewBox="0 0 96 24" fill="none" xmlns="http://www.w3.org/2000/svg">
<path d="M5.652 19V8.434H0.36V6.04H13.32V8.434H8.046V19H5.652ZM15.4942 19V11.044C15.4942 10.588 15.6082 10.174 15.8362 9.802C16.0642 9.43 16.3642 9.13 16.7362 8.902C17.1202 8.674 17.5342 8.56 17.9782 8.56H23.7742V10.918H18.0682C18.0082 10.918 17.9542 10.942 17.9062 10.99C17.8702 11.026 17.8522 11.074 17.8522 11.134V19H15.4942ZM26.0446 19V8.56H28.4026V19H26.0446ZM26.0446 7.516V5.14H28.4026V7.516H26.0446ZM30.9708 19V8.56H43.9128C44.3808 8.56 44.8008 8.674 45.1728 8.902C45.5448 9.13 45.8388 9.43 46.0548 9.802C46.2828 10.174 46.3968 10.588 46.3968 11.044V19H44.0568V11.134C44.0568 11.074 44.0328 11.026 43.9848 10.99C43.9368 10.942 43.8828 10.918 43.8228 10.918H40.0968C40.0368 10.918 39.9828 10.942 39.9348 10.99C39.8988 11.026 39.8808 11.074 39.8808 11.134V19H37.5048V11.134C37.5048 11.074 37.4808 11.026 37.4328 10.99C37.3968 10.942 37.3488 10.918 37.2888 10.918H33.5448C33.4848 10.918 33.4308 10.942 33.3828 10.99C33.3468 11.026 33.3288 11.074 33.3288 11.134V19H30.9708ZM51.9145 19C51.4585 19 51.0445 18.886 50.6725 18.658C50.3005 18.43 50.0005 18.13 49.7725 17.758C49.5445 17.386 49.4305 16.972 49.4305 16.516V5.122H51.8065V16.426C51.8065 16.486 51.8245 16.54 51.8605 16.588C51.9085 16.624 51.9625 16.642 52.0225 16.642H54.0205V19H51.9145ZM58.0137 22.87V20.494H64.2957C64.3557 20.494 64.4037 20.47 64.4397 20.422C64.4877 20.386 64.5117 20.338 64.5117 20.278V19H58.7517C58.3077 19 57.8937 18.886 57.5097 18.658C57.1377 18.43 56.8377 18.13 56.6097 17.758C56.3817 17.386 56.2677 16.972 56.2677 16.516V8.596H58.6257V16.426C58.6257 16.486 58.6437 16.54 58.6797 16.588C58.7277 16.624 58.7817 16.642 58.8417 16.642H64.2957C64.3557 16.642 64.4037 16.624 64.4397 16.588C64.4877 16.54 64.5117 16.486 64.5117 16.426V8.596H66.8697V20.386C66.8697 20.842 66.7617 21.256 66.5457 21.628C66.3297 22.012 66.0297 22.312 65.6457 22.528C65.2737 22.756 64.8597 22.87 64.4037 22.87H58.0137Z" fill="#FAFAFA"/>
<path d="M79.5 2V5M82.5 2V5M85.5 2V5M77 4H91V8.5L88.5 12V18C88.5 18 88.5 22 84 22C79.5 22 79.5 18 79.5 18V12L77 8.5V4Z" stroke="#FAFAFA" stroke-width="2" stroke-linecap="round" stroke-linejoin="round"/>
<path d="M85.5 15.5C85.5 14.6716 84.8284 14 84 14C83.1716 14 82.5 14.6716 82.5 15.5V17.5C82.5 18.3284 83.1716 19 84 19C84.8284 19 85.5 18.3284 85.5 17.5V15.5Z" stroke="#FAFAFA" stroke-width="2" stroke-linecap="round" stroke-linejoin="round"/>
<path d="M77 8.5H91M88.5 2V5" stroke="#FAFAFA" stroke-width="2" stroke-linecap="round" stroke-linejoin="round"/>
</svg>
