<svg width="24" height="24" viewBox="0 0 24 24" fill="none" xmlns="http://www.w3.org/2000/svg">
<path d="M3.00002 8.25016C2.99991 7.37997 3.21611 6.5234 3.62916 5.75749C4.04222 4.99158 4.63918 4.34035 5.36635 3.86238C6.09352 3.38441 6.92809 3.09469 7.79501 3.01927C8.66193 2.94385 9.53399 3.0851 10.3328 3.43032C11.1316 3.77554 11.832 4.3139 12.3711 4.99697C12.9102 5.68005 13.2711 6.48642 13.4213 7.34356C13.5714 8.20069 13.5062 9.08171 13.2314 9.90738C12.9566 10.733 12.4809 11.4775 11.847 12.0737C13.0421 12.6538 14.0797 13.5136 14.8719 14.5799C15.6641 15.6463 16.1876 16.888 16.398 18.1997C16.4212 18.3456 16.4153 18.4947 16.3809 18.6384C16.3464 18.7821 16.2839 18.9177 16.1971 19.0372C16.1102 19.1568 16.0007 19.2581 15.8747 19.3354C15.7487 19.4126 15.6087 19.4643 15.4628 19.4874C15.3168 19.5106 15.1677 19.5047 15.024 19.4702C14.8803 19.4358 14.7448 19.3733 14.6252 19.2865C14.5056 19.1996 14.4043 19.0901 14.3271 18.9641C14.2498 18.8381 14.1982 18.6981 14.175 18.5522C13.95 17.1426 13.2299 15.8595 12.144 14.9331C11.058 14.0067 9.6774 13.4979 8.25002 13.4979C6.82264 13.4979 5.44201 14.0067 4.35607 14.9331C3.27012 15.8595 2.55 17.1426 2.32502 18.5522C2.30177 18.6981 2.25001 18.8381 2.17267 18.964C2.09534 19.09 1.99396 19.1995 1.87431 19.2863C1.75466 19.373 1.61909 19.4354 1.47534 19.4698C1.3316 19.5042 1.18248 19.5099 1.03652 19.4867C0.890553 19.4634 0.750597 19.4116 0.624638 19.3343C0.49868 19.257 0.389187 19.1556 0.302411 19.0359C0.215634 18.9163 0.153274 18.7807 0.118891 18.637C0.0845071 18.4932 0.0787736 18.3441 0.102018 18.1982C0.311676 16.8866 0.834909 15.645 1.62724 14.579C2.41957 13.513 3.45757 12.654 4.65302 12.0752C4.13102 11.5842 3.71507 10.9915 3.43078 10.3337C3.1465 9.67585 2.9999 8.96679 3.00002 8.25016ZM16.5 6.00016C17.3715 6.00077 18.2241 6.25435 18.9543 6.73013C19.6845 7.20591 20.2609 7.88343 20.6135 8.68043C20.9661 9.47744 21.0798 10.3597 20.9407 11.22C20.8016 12.0804 20.4158 12.8818 19.83 13.5272C20.7435 13.9797 21.5552 14.6138 22.2155 15.3906C22.8757 16.1674 23.3706 17.0706 23.67 18.0452C23.7295 18.2343 23.7378 18.4357 23.6943 18.6291C23.6507 18.8225 23.5567 19.0009 23.4219 19.1462C23.2871 19.2916 23.1162 19.3986 22.9267 19.4566C22.7371 19.5145 22.5355 19.5213 22.3425 19.4762C22.1495 19.4315 21.9717 19.3367 21.8271 19.2013C21.6825 19.066 21.5763 18.8948 21.519 18.7052C21.2498 17.8357 20.7598 17.0509 20.0967 16.4273C19.4337 15.8037 18.6203 15.3626 17.736 15.1472C17.4904 15.0879 17.2719 14.9476 17.1157 14.7489C16.9595 14.5503 16.8747 14.3049 16.875 14.0522V13.5242C16.8749 13.3147 16.9332 13.1094 17.0435 12.9313C17.1537 12.7532 17.3115 12.6094 17.499 12.5162C17.9538 12.2908 18.319 11.9183 18.5353 11.4592C18.7516 11.0001 18.8063 10.4813 18.6906 9.98714C18.5749 9.49298 18.2955 9.05246 17.8978 8.73713C17.5002 8.4218 17.0075 8.25019 16.5 8.25016C16.2016 8.25016 15.9155 8.13163 15.7045 7.92065C15.4935 7.70968 15.375 7.42353 15.375 7.12516C15.375 6.82679 15.4935 6.54064 15.7045 6.32966C15.9155 6.11869 16.2016 6.00016 16.5 6.00016ZM8.25002 5.25016C7.85051 5.24112 7.45322 5.312 7.08148 5.45862C6.70974 5.60524 6.37104 5.82464 6.08526 6.10396C5.79948 6.38328 5.57239 6.71688 5.41731 7.08518C5.26223 7.45347 5.18229 7.84903 5.18219 8.24864C5.18209 8.64825 5.26183 9.04386 5.41673 9.41223C5.57162 9.7806 5.79855 10.1143 6.08419 10.3938C6.36982 10.6732 6.70842 10.8928 7.08009 11.0396C7.45175 11.1864 7.849 11.2575 8.24852 11.2487C9.03236 11.2313 9.77827 10.9078 10.3266 10.3474C10.8749 9.78698 11.182 9.03418 11.1822 8.25014C11.1824 7.46611 10.8756 6.71315 10.3276 6.15246C9.7796 5.59176 9.03385 5.26788 8.25002 5.25016Z" fill="black"/>
</svg>
