<svg width="15" height="15" viewBox="0 0 15 15" fill="none" xmlns="http://www.w3.org/2000/svg">
<path d="M7.34691 5.34733C6.93656 5.30681 6.52371 5.39411 6.1649 5.59728C5.80608 5.80045 5.51883 6.10957 5.34248 6.4823C5.16613 6.85503 5.1093 7.27316 5.17976 7.67944C5.25023 8.08572 5.44456 8.46029 5.73613 8.75186C6.0277 9.04344 6.40227 9.23776 6.80855 9.30823C7.21483 9.3787 7.63296 9.32187 8.00569 9.14552C8.37843 8.96916 8.68754 8.68192 8.89071 8.3231C9.09389 7.96428 9.18119 7.55143 9.14066 7.14108C9.09446 6.68108 8.89063 6.25119 8.56372 5.92428C8.2368 5.59737 7.80692 5.39354 7.34691 5.34733ZM12.1625 7.33765C12.1613 7.55504 12.1453 7.7721 12.1147 7.98733L13.5275 9.09546C13.5891 9.14646 13.6305 9.21761 13.6445 9.29628C13.6585 9.37495 13.6442 9.45604 13.6041 9.52515L12.2675 11.8376C12.2269 11.9061 12.1635 11.958 12.0884 11.9842C12.0133 12.0105 11.9313 12.0094 11.8569 11.9811L10.4538 11.4161C10.3764 11.3853 10.2926 11.3741 10.2099 11.3837C10.1271 11.3932 10.0481 11.4232 9.97972 11.4708C9.76558 11.6182 9.54056 11.7492 9.3066 11.8626C9.23304 11.8984 9.16942 11.9517 9.12135 12.0179C9.07328 12.084 9.04224 12.161 9.03097 12.242L8.82066 13.7386C8.80685 13.8176 8.76601 13.8894 8.70514 13.9417C8.64426 13.9939 8.56713 14.0234 8.48691 14.0251H5.81378C5.73489 14.0238 5.65882 13.9956 5.59809 13.9452C5.53737 13.8948 5.49562 13.8252 5.47972 13.748L5.26972 12.2536C5.25793 12.1717 5.22608 12.094 5.17702 12.0274C5.12795 11.9607 5.06318 11.9073 4.98847 11.8717C4.75477 11.7589 4.53051 11.6276 4.31785 11.4789C4.24975 11.4315 4.17094 11.4018 4.08851 11.3925C4.00608 11.3832 3.92262 11.3945 3.84566 11.4255L2.44285 11.9901C2.36851 12.0185 2.28656 12.0196 2.21144 11.9934C2.13633 11.9673 2.07286 11.9154 2.03222 11.847L0.695659 9.53452C0.655476 9.46543 0.641116 9.38432 0.655136 9.30564C0.669157 9.22695 0.710648 9.15579 0.772222 9.10483L1.96628 8.16733C2.0317 8.1154 2.08312 8.04796 2.11586 7.97112C2.1486 7.89429 2.16164 7.81049 2.15378 7.72733C2.14253 7.59702 2.13566 7.46702 2.13566 7.33671C2.13566 7.2064 2.14222 7.07827 2.15378 6.95077C2.16078 6.86812 2.1471 6.78503 2.11399 6.70899C2.08088 6.63294 2.02937 6.56633 1.9641 6.51515L0.770659 5.57765C0.710085 5.52643 0.669468 5.45552 0.655926 5.37736C0.642385 5.29919 0.656783 5.21876 0.696597 5.15015L2.03316 2.83765C2.07375 2.76921 2.13719 2.71729 2.21232 2.69105C2.28744 2.66481 2.36941 2.66593 2.44378 2.69421L3.84691 3.25921C3.92429 3.29002 4.0081 3.30115 4.09083 3.2916C4.17357 3.28206 4.25264 3.25214 4.32097 3.20452C4.53511 3.05706 4.76013 2.92606 4.9941 2.81265C5.06765 2.7769 5.13127 2.72359 5.17934 2.65742C5.22741 2.59126 5.25845 2.51427 5.26972 2.43327L5.48003 0.936709C5.49385 0.857672 5.53468 0.785885 5.59556 0.733617C5.65643 0.68135 5.73357 0.651845 5.81378 0.650146H8.48691C8.5658 0.651511 8.64188 0.679709 8.7026 0.730095C8.76333 0.78048 8.80507 0.850047 8.82097 0.927334L9.03097 2.42171C9.04276 2.5036 9.07461 2.58132 9.12368 2.64794C9.17274 2.71456 9.23751 2.76803 9.31222 2.80358C9.54592 2.91635 9.77019 3.04771 9.98285 3.1964C10.0509 3.24378 10.1298 3.27347 10.2122 3.2828C10.2946 3.29212 10.3781 3.2808 10.455 3.24983L11.8578 2.68515C11.9322 2.65684 12.0141 2.65567 12.0893 2.68185C12.1644 2.70804 12.2278 2.75989 12.2685 2.82827L13.605 5.14077C13.6452 5.20986 13.6596 5.29097 13.6456 5.36966C13.6315 5.44834 13.59 5.5195 13.5285 5.57046L12.3344 6.50796C12.2687 6.55972 12.217 6.62709 12.184 6.70394C12.151 6.78078 12.1377 6.86467 12.1453 6.94796C12.1557 7.07733 12.1625 7.20733 12.1625 7.33765Z" stroke="black" stroke-width="1.3" stroke-linecap="round" stroke-linejoin="round"/>
</svg>
