<svg width="14" height="13" viewBox="0 0 14 13" fill="none" xmlns="http://www.w3.org/2000/svg">
<path fill-rule="evenodd" clip-rule="evenodd" d="M7.21568 0.338934C7.16899 0.237747 7.0943 0.152051 7.00043 0.0919862C6.90656 0.031921 6.79746 0 6.68602 0C6.57458 0 6.46547 0.031921 6.3716 0.0919862C6.27774 0.152051 6.20304 0.237747 6.15635 0.338934L4.48218 3.96727L0.514932 4.43802C0.404245 4.45109 0.299619 4.49559 0.213436 4.56627C0.127253 4.63694 0.0631218 4.73083 0.028632 4.83682C-0.00585786 4.9428 -0.00926235 5.05645 0.0188214 5.16431C0.0469051 5.27217 0.105301 5.36973 0.187099 5.44543L3.12127 8.15793L2.34252 12.0779C2.32089 12.1872 2.331 12.3004 2.37165 12.4041C2.41231 12.5078 2.48181 12.5977 2.57193 12.6632C2.66206 12.7286 2.76905 12.7669 2.88025 12.7735C2.99145 12.7801 3.10221 12.7547 3.19943 12.7004L6.68602 10.7485L10.1726 12.7004C10.2699 12.7549 10.3808 12.7805 10.4922 12.774C10.6035 12.7675 10.7107 12.7291 10.8009 12.6636C10.8912 12.598 10.9608 12.5079 11.0014 12.404C11.042 12.3001 11.052 12.1867 11.0301 12.0774L10.2513 8.15852L13.1849 5.44543C13.2667 5.36973 13.3251 5.27217 13.3532 5.16431C13.3813 5.05645 13.3779 4.9428 13.3434 4.83682C13.3089 4.73083 13.2448 4.63694 13.1586 4.56627C13.0724 4.49559 12.9678 4.45109 12.8571 4.43802L8.88927 3.96668L7.21568 0.338934Z" fill="#5B5F64"/>
</svg>
