<svg width="16" height="16" viewBox="0 0 16 16" fill="none" xmlns="http://www.w3.org/2000/svg">
<path d="M14.0001 7.33536H13.8827L12.6674 3.78002L2.23608 7.33536L2.00008 7.33336M1.66675 7.33602H2.00008L9.43075 1.40002L11.3087 4.03336" stroke="black" stroke-width="1.3" stroke-linecap="square"/>
<path d="M9.66683 10.6667C9.66683 11.1087 9.49123 11.5326 9.17867 11.8452C8.86611 12.1577 8.44219 12.3333 8.00016 12.3333C7.55814 12.3333 7.13421 12.1577 6.82165 11.8452C6.50909 11.5326 6.3335 11.1087 6.3335 10.6667C6.3335 10.2246 6.50909 9.80072 6.82165 9.48816C7.13421 9.17559 7.55814 9 8.00016 9C8.44219 9 8.86611 9.17559 9.17867 9.48816C9.49123 9.80072 9.66683 10.2246 9.66683 10.6667Z" stroke="black" stroke-width="1.3" stroke-linecap="square"/>
<path d="M14.3334 7.33337V14H1.66675V7.33337H14.3334Z" stroke="black" stroke-width="1.3" stroke-linecap="square"/>
<path d="M1.66675 7.33337H3.00008C3.00008 7.687 2.85961 8.02613 2.60956 8.27618C2.35951 8.52623 2.02037 8.66671 1.66675 8.66671V7.33337ZM14.3334 7.33337H13.0001C13.0001 7.687 13.1406 8.02613 13.3906 8.27618C13.6407 8.52623 13.9798 8.66671 14.3334 8.66671V7.33337ZM1.66675 14H3.00141C3.00159 13.8247 2.96719 13.6511 2.90018 13.4891C2.83317 13.3271 2.73486 13.1799 2.61089 13.0559C2.48692 12.9319 2.33972 12.8336 2.17771 12.7666C2.0157 12.6996 1.84207 12.6652 1.66675 12.6654V14ZM14.3334 14H13.0001C13.0001 13.6464 13.1406 13.3073 13.3906 13.0572C13.6407 12.8072 13.9798 12.6667 14.3334 12.6667V14Z" stroke="black" stroke-width="1.3" stroke-linecap="square"/>
</svg>
