<svg width="15" height="15" viewBox="0 0 15 15" fill="none" xmlns="http://www.w3.org/2000/svg">
<path d="M6.10194 0.579343C6.45174 0.229398 6.92004 0.0233411 7.41437 0.00186469C7.9087 -0.0196117 8.39311 0.145054 8.77194 0.463344L8.89794 0.579343L9.93494 1.61634L11.4049 1.61834C12.3949 1.61834 13.2149 2.34534 13.3599 3.29534L13.3769 3.44734L13.3819 3.59534L13.3809 5.06234L14.4209 6.10234C15.1109 6.79334 15.1839 7.86834 14.6389 8.63934L14.5359 8.77234L14.4209 8.89834L13.3809 9.93434L13.3819 11.4063C13.3819 12.3963 12.6549 13.2163 11.7049 13.3603L11.5529 13.3773L11.4049 13.3823L9.93394 13.3813L8.89794 14.4213C8.56822 14.7502 8.13313 14.9524 7.66913 14.9923C7.20513 15.0321 6.74193 14.9072 6.36094 14.6393L6.22794 14.5373L6.10194 14.4213L5.06194 13.3813L3.59394 13.3823C2.60394 13.3823 1.78394 12.6553 1.63994 11.7053L1.62294 11.5543L1.61794 11.4063L1.61594 9.93534L0.578939 8.89834C0.249639 8.56869 0.0471464 8.13346 0.00708915 7.66924C-0.0329681 7.20501 0.0919764 6.74153 0.359939 6.36034L0.462939 6.22834L0.577939 6.10234L1.61594 5.06234L1.61794 3.59334C1.61794 2.60334 2.34494 1.78334 3.29494 1.63934L3.44594 1.62234L3.59394 1.61734L5.06294 1.61534L6.10194 0.579343ZM10.1449 4.98934L10.0599 5.06034L6.49994 8.62034L4.93994 7.06034C4.82226 6.94551 4.66436 6.88123 4.49994 6.88123C4.33552 6.88123 4.17761 6.94551 4.05994 7.06034C3.95813 7.16428 3.89542 7.30025 3.88248 7.44517C3.86954 7.59008 3.90715 7.73501 3.98894 7.85534L4.05994 7.94034L6.05994 9.94034C6.16469 10.0444 6.30289 10.108 6.45005 10.1199C6.59721 10.1318 6.74384 10.0912 6.86394 10.0053L6.93994 9.94034L10.9399 5.94034C10.9992 5.88342 11.0464 5.8151 11.0786 5.73949C11.1108 5.66388 11.1274 5.58253 11.1274 5.50034C11.1274 5.41815 11.1108 5.33681 11.0786 5.2612C11.0464 5.18559 10.9992 5.11727 10.9399 5.06034C10.836 4.95853 10.7 4.89583 10.5551 4.88288C10.4102 4.86994 10.2653 4.90756 10.1449 4.98934Z" fill="url(#paint0_linear_89_275)"/>
<defs>
<linearGradient id="paint0_linear_89_275" x1="7.49962" y1="0" x2="7.49962" y2="14.9995" gradientUnits="userSpaceOnUse">
<stop stop-color="#E9BA11"/>
<stop offset="1" stop-color="#836909"/>
</linearGradient>
</defs>
</svg>
