<svg width="16" height="16" viewBox="0 0 16 16" fill="none" xmlns="http://www.w3.org/2000/svg">
<g clip-path="url(#clip0_135_175)">
<path d="M8.66665 11C8.66665 11.1769 8.59641 11.3464 8.47139 11.4714C8.34636 11.5965 8.17679 11.6667 7.99998 11.6667C7.82317 11.6667 7.6536 11.5965 7.52858 11.4714C7.40356 11.3464 7.33332 11.1769 7.33332 11C7.33332 10.8232 7.40356 10.6537 7.52858 10.5286C7.6536 10.4036 7.82317 10.3334 7.99998 10.3334C8.17679 10.3334 8.34636 10.4036 8.47139 10.5286C8.59641 10.6537 8.66665 10.8232 8.66665 11ZM6.98865 5.89004C7.06332 5.74137 7.16732 5.60737 7.31398 5.51004C7.45732 5.41337 7.67065 5.33337 7.99998 5.33337C8.25598 5.33337 8.51065 5.41204 8.68932 5.54604C8.77508 5.60637 8.84452 5.68704 8.89142 5.78082C8.93831 5.87461 8.96118 5.97857 8.95798 6.08337C8.95798 6.40337 8.81265 6.62337 8.54465 6.87404C8.45615 6.95542 8.36522 7.03412 8.27198 7.11004L8.07598 7.27604C7.91198 7.41804 7.72665 7.59204 7.58398 7.80604L7.49998 7.93271V9.00004C7.49998 9.13265 7.55266 9.25983 7.64643 9.35359C7.7402 9.44736 7.86738 9.50004 7.99998 9.50004C8.13259 9.50004 8.25977 9.44736 8.35354 9.35359C8.44731 9.25983 8.49998 9.13265 8.49998 9.00004V8.25337C8.55998 8.18671 8.63532 8.11471 8.73132 8.03137C8.77332 7.99471 8.82465 7.95204 8.87932 7.90671C8.98998 7.81337 9.11798 7.70671 9.22598 7.60537C9.58332 7.27204 9.95798 6.80537 9.95798 6.08337C9.96104 5.82333 9.90197 5.56631 9.78566 5.3337C9.66936 5.10109 9.49919 4.89962 9.28932 4.74604C8.91332 4.46337 8.43865 4.33337 7.99998 4.33337C7.49598 4.33337 7.08465 4.46071 6.75932 4.67804C6.47448 4.87046 6.24526 5.13439 6.09465 5.44337C6.04089 5.56124 6.03497 5.69536 6.07814 5.8175C6.12131 5.93964 6.2102 6.04026 6.32609 6.09816C6.44197 6.15605 6.57581 6.16672 6.6994 6.1279C6.82299 6.08908 6.92669 6.0038 6.98865 5.89004Z" fill="black"/>
<path d="M6.57599 0.799991C6.98892 0.496918 7.48778 0.333496 7.99999 0.333496C8.5122 0.333496 9.01106 0.496918 9.42399 0.799991L10.3407 1.47332C10.5233 1.60666 10.736 1.69532 10.96 1.72932L12.084 1.90199C12.5902 1.97961 13.0585 2.21671 13.4207 2.5788C13.7829 2.9409 14.0202 3.4091 14.098 3.91532L14.2707 5.03999C14.3047 5.26399 14.3927 5.47666 14.5267 5.65932L15.2 6.57599C15.5031 6.98892 15.6665 7.48778 15.6665 7.99999C15.6665 8.5122 15.5031 9.01106 15.2 9.42399L14.5267 10.3407C14.3924 10.5233 14.3046 10.7359 14.2707 10.96L14.098 12.084C14.0204 12.5902 13.7833 13.0585 13.4212 13.4207C13.0591 13.7829 12.5909 14.0202 12.0847 14.098L10.96 14.2707C10.7359 14.3046 10.5233 14.3924 10.3407 14.5267L9.42399 15.2C9.01106 15.5031 8.5122 15.6665 7.99999 15.6665C7.48778 15.6665 6.98892 15.5031 6.57599 15.2L5.65932 14.5267C5.47665 14.3924 5.26412 14.3046 5.03999 14.2707L3.91599 14.098C3.40974 14.0204 2.94146 13.7833 2.57925 13.4212C2.21703 13.0591 1.97978 12.5909 1.90199 12.0847L1.72932 10.96C1.69539 10.7359 1.60754 10.5233 1.47332 10.3407L0.799991 9.42399C0.496918 9.01106 0.333496 8.5122 0.333496 7.99999C0.333496 7.48778 0.496918 6.98892 0.799991 6.57599L1.47332 5.65932C1.60732 5.47666 1.69532 5.26399 1.72932 5.03999L1.90199 3.91599C1.97961 3.40974 2.21671 2.94146 2.5788 2.57925C2.9409 2.21703 3.4091 1.97978 3.91532 1.90199L5.03999 1.72932C5.26399 1.69532 5.47666 1.60732 5.65932 1.47332L6.57599 0.799991ZM8.83199 1.60599C8.5907 1.42899 8.29924 1.33356 7.99999 1.33356C7.70074 1.33356 7.40928 1.42899 7.16799 1.60599L6.25066 2.27932C5.93817 2.50898 5.57469 2.6595 5.19132 2.71799L4.06732 2.88999C3.77132 2.93536 3.49751 3.07401 3.28576 3.28576C3.07401 3.49751 2.93536 3.77132 2.88999 4.06732L2.71799 5.19132C2.65961 5.57492 2.50908 5.93865 2.27932 6.25132L1.60599 7.16799C1.42899 7.40928 1.33356 7.70074 1.33356 7.99999C1.33356 8.29924 1.42899 8.5907 1.60599 8.83199L2.27932 9.74932C2.50898 10.0618 2.6595 10.4253 2.71799 10.8087L2.88999 11.9327C2.93549 12.2285 3.07419 12.5022 3.28594 12.7138C3.49768 12.9254 3.77141 13.064 4.06732 13.1093L5.19132 13.2827C5.57486 13.3408 5.93858 13.4911 6.25132 13.7207L7.16799 14.394C7.40928 14.571 7.70074 14.6664 7.99999 14.6664C8.29924 14.6664 8.5907 14.571 8.83199 14.394L9.74932 13.7207C10.0618 13.491 10.4253 13.3405 10.8087 13.282L11.9327 13.11C12.2285 13.0645 12.5022 12.9258 12.7138 12.714C12.9254 12.5023 13.064 12.2286 13.1093 11.9327L13.2827 10.8087C13.3408 10.4251 13.4911 10.0614 13.7207 9.74866L14.394 8.83199C14.571 8.5907 14.6664 8.29924 14.6664 7.99999C14.6664 7.70074 14.571 7.40928 14.394 7.16799L13.7207 6.25066C13.491 5.93817 13.3405 5.57469 13.282 5.19132L13.11 4.06732C13.0646 3.77132 12.926 3.49751 12.7142 3.28576C12.5025 3.07401 12.2287 2.93536 11.9327 2.88999L10.8087 2.71799C10.4251 2.65961 10.0613 2.50908 9.74866 2.27932L8.83199 1.60599Z" fill="black"/>
</g>
<defs>
<clipPath id="clip0_135_175">
<rect width="16" height="16" fill="white"/>
</clipPath>
</defs>
</svg>
