<svg width="16" height="16" viewBox="0 0 16 16" fill="none" xmlns="http://www.w3.org/2000/svg">
<path d="M12.6667 1.99996H12V0.666626H10.6667V1.99996H5.33333V0.666626H4V1.99996H3.33333C2.6 1.99996 2 2.59996 2 3.33329V12.6666C2 13.4 2.6 14 3.33333 14H12.6667C13.4 14 14 13.4 14 12.6666V3.33329C14 2.59996 13.4 1.99996 12.6667 1.99996ZM12.6667 12.6666H3.33333V5.99996H12.6667V12.6666ZM3.33333 4.66663V3.33329H12.6667V4.66663H3.33333ZM7.04 11.64L10.9933 7.68663L10.2867 6.97996L7.04 10.2266L5.63333 8.81996L4.92667 9.52663L7.04 11.64Z" fill="black"/>
</svg>
