<svg width="14" height="13" viewBox="0 0 14 13" fill="none" xmlns="http://www.w3.org/2000/svg">
<path d="M4.03328 4.03328H9.36662M4.03328 6.69995H8.03328M10.7 0.699951C11.2304 0.699951 11.7391 0.910665 12.1142 1.28574C12.4892 1.66081 12.7 2.16952 12.7 2.69995V8.03328C12.7 8.56372 12.4892 9.07242 12.1142 9.4475C11.7391 9.82257 11.2304 10.0333 10.7 10.0333H7.36662L4.03328 12.0333V10.0333H2.69995C2.16952 10.0333 1.66081 9.82257 1.28574 9.4475C0.910665 9.07242 0.699951 8.56372 0.699951 8.03328V2.69995C0.699951 2.16952 0.910665 1.66081 1.28574 1.28574C1.66081 0.910665 2.16952 0.699951 2.69995 0.699951H10.7Z" stroke="black" stroke-width="1.4" stroke-linecap="round" stroke-linejoin="round"/>
</svg>
