<svg width="16" height="22" viewBox="0 0 16 22" fill="none" xmlns="http://www.w3.org/2000/svg">
<path d="M3.5 1V4M6.5 1V4M9.5 1V4M1 3H15V7.5L12.5 11V17C12.5 17 12.5 21 8 21C3.5 21 3.5 17 3.5 17V11L1 7.5V3Z" stroke="#0A0A0A" stroke-width="2" stroke-linecap="round" stroke-linejoin="round"/>
<path d="M9.5 14.5C9.5 13.6716 8.82843 13 8 13C7.17157 13 6.5 13.6716 6.5 14.5V16.5C6.5 17.3284 7.17157 18 8 18C8.82843 18 9.5 17.3284 9.5 16.5V14.5Z" stroke="#0A0A0A" stroke-width="2" stroke-linecap="round" stroke-linejoin="round"/>
<path d="M1 7.5H15M12.5 1V4" stroke="#0A0A0A" stroke-width="2" stroke-linecap="round" stroke-linejoin="round"/>
</svg>
