<svg width="14" height="14" viewBox="0 0 14 14" fill="none" xmlns="http://www.w3.org/2000/svg">
<path d="M11.7953 7.91667H9.212C8.86956 7.91631 8.54096 8.05178 8.29826 8.29335C8.05556 8.53493 7.91857 8.8629 7.91733 9.20533V11.7887C7.91716 11.9587 7.95053 12.1272 8.01553 12.2843C8.08053 12.4415 8.17589 12.5843 8.29614 12.7045C8.4164 12.8248 8.55919 12.9201 8.71635 12.9851C8.8735 13.0501 9.04193 13.0835 9.212 13.0833H11.7953C12.1377 13.0819 12.4655 12.9449 12.7069 12.7022C12.9483 12.4595 13.0837 12.131 13.0833 11.7887V9.20533C13.0835 9.03614 13.0503 8.86858 12.9856 8.71223C12.921 8.55588 12.8261 8.41383 12.7065 8.29419C12.5868 8.17455 12.4448 8.07969 12.2884 8.01502C12.1321 7.95035 11.9645 7.91716 11.7953 7.91733M4.62133 7.91667H2.038C1.69573 7.91861 1.36814 8.05593 1.1268 8.29864C0.88546 8.54136 0.749995 8.86972 0.750001 9.212V11.7953C0.749825 11.9645 0.783021 12.1321 0.847687 12.2884C0.912352 12.4448 1.00722 12.5868 1.12686 12.7065C1.24649 12.8261 1.38855 12.921 1.5449 12.9856C1.70124 13.0503 1.86881 13.0835 2.038 13.0833H4.62133C4.96366 13.0837 5.29216 12.9483 5.53484 12.7069C5.77752 12.4655 5.91459 12.1377 5.916 11.7953V9.212C5.91618 9.04193 5.88281 8.8735 5.81781 8.71635C5.75281 8.55919 5.65745 8.4164 5.53719 8.29614C5.41694 8.17589 5.27414 8.08053 5.11699 8.01553C4.95983 7.95053 4.7914 7.91716 4.62133 7.91733M4.62133 0.750001H2.038C1.86881 0.749825 1.70124 0.783021 1.5449 0.847687C1.38855 0.912352 1.24649 1.00722 1.12686 1.12686C1.00722 1.24649 0.912352 1.38855 0.847687 1.5449C0.783021 1.70124 0.749825 1.86881 0.750001 2.038V4.62133C0.749645 4.96366 0.885018 5.29216 1.12645 5.53484C1.36788 5.77752 1.69568 5.91459 2.038 5.916H4.62133C4.7914 5.91618 4.95983 5.88281 5.11699 5.81781C5.27414 5.75281 5.41694 5.65745 5.53719 5.53719C5.65745 5.41694 5.75281 5.27414 5.81781 5.11699C5.88281 4.95983 5.91618 4.7914 5.916 4.62133V2.038C5.91459 1.69568 5.77752 1.36788 5.53484 1.12645C5.29216 0.885018 4.96366 0.749645 4.62133 0.750001ZM11.7953 0.750001H9.212C8.86968 0.749645 8.54118 0.885018 8.2985 1.12645C8.05581 1.36788 7.91875 1.69568 7.91733 2.038V4.62133C7.91751 4.96465 8.05397 5.29385 8.29673 5.53661C8.53949 5.77937 8.86869 5.91582 9.212 5.916H11.7953C12.1377 5.91459 12.4655 5.77752 12.7069 5.53484C12.9483 5.29216 13.0837 4.96366 13.0833 4.62133V2.038C13.0835 1.86881 13.0503 1.70124 12.9856 1.5449C12.921 1.38855 12.8261 1.24649 12.7065 1.12686C12.5868 1.00722 12.4448 0.912352 12.2884 0.847687C12.1321 0.783021 11.9645 0.749825 11.7953 0.750001Z" stroke="black" stroke-width="1.5" stroke-linecap="round" stroke-linejoin="round"/>
</svg>
